<?xml version="1.0" standalone="no"?>
<!DOCTYPE svg PUBLIC "-//W3C//DTD SVG 20010904//EN"
 "http://www.w3.org/TR/2001/REC-SVG-20010904/DTD/svg10.dtd">
<svg version="1.0" xmlns="http://www.w3.org/2000/svg"
 width="71.000000pt" height="71.000000pt" viewBox="0 0 71.000000 71.000000"
 preserveAspectRatio="xMidYMid meet">
<metadata>
Created by potrace 1.14, written by Peter Selinger 2001-2017
</metadata>
<g transform="translate(0.000000,71.000000) scale(0.100000,-0.100000)"
fill="#000000" stroke="none">
<path d="M240 589 c-19 -6 -42 -13 -50 -16 -17 -7 -26 -10 -38 -12 -33 -4 -74
-71 -67 -107 2 -11 4 -27 4 -36 1 -27 66 -70 104 -70 39 0 100 39 139 90 l26
33 18 -31 c38 -63 129 -107 180 -85 89 38 94 159 8 200 -85 40 -179 56 -201
34 -8 -8 -13 -8 -17 0 -8 13 -57 13 -106 0z m-1 -64 c7 -4 19 -21 26 -38 22
-54 -5 -96 -71 -110 -30 -6 -73 31 -80 69 -9 45 33 93 79 90 19 -2 39 -6 46
-11z m316 6 c6 -1 19 -15 29 -31 24 -41 13 -86 -26 -110 -34 -20 -63 -16 -95
13 -52 47 -6 145 62 132 11 -2 25 -4 30 -4z"/>
<path d="M140 430 c1 -33 70 -44 98 -17 9 10 12 17 7 18 -64 4 -105 3 -105 -1z"/>
<path d="M470 425 c0 -7 12 -17 26 -24 22 -10 31 -9 51 4 14 9 22 19 19 22
-11 11 -96 9 -96 -2z"/>
<path d="M118 263 c-12 -3 -18 -14 -18 -33 0 -24 6 -30 35 -40 44 -14 36 -33
-11 -24 -35 6 -43 -3 -22 -24 17 -17 74 -15 91 3 23 22 14 48 -21 64 -40 18
-42 35 -2 26 23 -5 30 -3 30 8 0 23 -36 32 -82 20z"/>
<path d="M227 262 c-2 -4 -3 -34 -3 -67 l1 -60 54 0 c35 0 56 5 59 13 2 8 -9
12 -38 12 -29 0 -40 4 -38 13 3 6 18 12 34 12 18 1 29 6 29 15 0 9 -11 14 -29
15 -16 0 -31 6 -34 13 -2 8 8 12 32 12 24 0 36 5 36 14 0 10 -14 14 -50 14
-27 1 -51 -2 -53 -6z"/>
<path d="M359 255 c-1 -8 -1 -31 -1 -50 0 -79 -3 -75 58 -75 63 0 73 21 13 30
-43 6 -48 27 -6 26 22 -1 32 4 32 14 0 9 -9 15 -25 15 -41 0 -38 20 3 23 66 6
39 32 -34 32 -28 0 -39 -4 -40 -15z"/>
<path d="M490 199 c0 -62 2 -70 18 -67 9 2 17 8 17 13 1 30 17 34 38 9 13 -15
31 -25 40 -23 15 4 14 8 -9 42 l-26 39 21 22 c40 42 11 52 -33 11 -15 -14 -28
-25 -30 -25 -2 0 -2 11 -1 25 3 19 -1 25 -16 25 -17 0 -19 -8 -19 -71z"/>
</g>
</svg>
