<?xml version="1.0" encoding="UTF-8" standalone="no"?>
<!-- Created with Inkscape (http://www.inkscape.org/) -->

<svg
   width="704"
   height="200"
   viewBox="0 0 704 200"
   version="1.1"
   id="svg1"
   xml:space="preserve"
   xmlns="http://www.w3.org/2000/svg"
   xmlns:svg="http://www.w3.org/2000/svg"><defs
     id="defs1" /><g
     id="layer1"><rect
       style="fill:#f0f5fd;fill-opacity:1;stroke:none;stroke-width:3.8843;stroke-linejoin:round;stroke-dasharray:31.0744, 3.8843"
       id="rect1"
       width="703"
       height="202"
       x="0"
       y="-2" /><path
       d="m 20.425,131.3 a 21.9,21.9 0 1 1 43.8,0 21.9,21.9 0 1 1 -43.8,0 z M 4,191.91852 C 4,175.06578 17.653281,161.4125 34.506016,161.4125 H 50.143983 C 66.996717,161.4125 80.65,175.06578 80.65,191.91852 80.65,194.72445 78.374455,197 75.568517,197 H 9.0814849 C 6.2755467,197 4,194.72445 4,191.91852 Z M 108.24742,197 H 84.670705 c 0.923909,-1.60828 1.471409,-3.4732 1.471409,-5.475 v -1.36875 c 0,-10.38539 -4.636644,-19.71 -11.942347,-25.97203 0.410622,-0.0171 0.804138,-0.0342 1.214766,-0.0342 h 10.505156 c 15.227341,0 27.580311,12.35297 27.580311,27.59742 0,2.90859 -2.36109,5.25258 -5.25258,5.25258 z M 77.9125,153.2 c -5.303905,0 -10.094533,-2.15578 -13.567733,-5.62898 C 67.715311,143.01992 69.7,137.39094 69.7,131.3 c 0,-4.58531 -1.129217,-8.91398 -3.131017,-12.71227 3.182345,-2.32687 7.100389,-3.71273 11.343517,-3.71273 10.590705,0 19.1625,8.5718 19.1625,19.1625 0,10.5907 -8.571795,19.1625 -19.1625,19.1625 z"
       id="path1"
       style="fill:#ffffff;fill-opacity:1;stroke-width:0.171094" /><path
       d="M 105.64286,5.5 C 96.799666,5.5 89.625,12.674664 89.625,21.517857 v 53.392857 c 0,8.843195 7.174666,16.017861 16.01786,16.017861 h 48.05357 5.33929 c 2.95328,0 5.33928,-2.385995 5.33928,-5.339292 0,-2.953288 -2.386,-5.339283 -5.33928,-5.339283 V 69.571428 c 2.95328,0 5.33928,-2.385991 5.33928,-5.339285 V 10.839286 C 164.375,7.8859913 161.989,5.5 159.03572,5.5 h -5.33929 z m 0,64.071428 h 42.71428 V 80.25 h -42.71428 c -2.95329,0 -5.33929,-2.385992 -5.33929,-5.339286 0,-2.953294 2.386,-5.339286 5.33929,-5.339286 z m 5.33928,-40.044642 c 0,-1.468305 1.20134,-2.669643 2.66964,-2.669643 h 32.03572 c 1.4683,0 2.66964,1.201338 2.66964,2.669643 0,1.468305 -1.20134,2.669642 -2.66964,2.669642 h -32.03572 c -1.4683,0 -2.66964,-1.201337 -2.66964,-2.669642 z m 2.66964,8.008928 h 32.03572 c 1.4683,0 2.66964,1.201338 2.66964,2.669643 0,1.468305 -1.20134,2.669643 -2.66964,2.669643 h -32.03572 c -1.4683,0 -2.66964,-1.201338 -2.66964,-2.669643 0,-1.468305 1.20134,-2.669643 2.66964,-2.669643 z"
       id="path1-5"
       style="fill:#ffffff;stroke-width:0.166854" /><path
       d="m 173.41993,174.21651 c -1.70352,2.78125 -2.60743,5.9623 -2.60743,9.23026 -1.73829,0.60841 -3.61562,0.95606 -5.5625,0.95606 -9.21289,0 -16.6875,-7.47461 -16.6875,-16.6875 v -50.0625 c -3.07676,0 -5.5625,-2.48575 -5.5625,-5.5625 0,-3.07676 2.48574,-5.5625 5.5625,-5.5625 h 11.125 11.125 11.125 c 3.07676,0 5.5625,2.48574 5.5625,5.5625 0,3.07675 -2.48574,5.5625 -5.5625,5.5625 v 42.74434 l -8.51757,13.83672 z M 159.6875,117.65283 v 16.6875 h 11.125 v -16.6875 z m 44.5,-11.125 h 22.25 H 232 c 3.07676,0 5.5625,2.48574 5.5625,5.5625 0,3.07675 -2.48574,5.5625 -5.5625,5.5625 v 26.23067 l 20.45957,33.25331 c 1.16465,1.89473 1.79043,4.08496 1.79043,6.32734 0,6.65762 -5.40606,12.06368 -12.06368,12.06368 h -53.74764 c -6.65762,0 -12.06368,-5.40606 -12.06368,-12.06368 0,-2.225 0.62579,-4.41522 1.79043,-6.32734 L 198.625,143.8835 v -26.23067 c -3.07676,0 -5.5625,-2.48575 -5.5625,-5.5625 0,-3.07676 2.48574,-5.5625 5.5625,-5.5625 z m 5.5625,11.125 v 27.8125 c 0,1.02559 -0.27813,2.03379 -0.81699,2.92031 l -8.48282,13.76719 h 29.72462 l -8.48282,-13.76719 c -0.53887,-0.86913 -0.81699,-1.87734 -0.81699,-2.92031 v -27.8125 z"
       id="path1-55"
       style="fill:#ffffff;stroke-width:0.173828" /><path
       d="m 533.30974,136.92141 c 0,8.69525 -2.82264,16.72745 -7.57755,23.24414 l 23.98294,24.00189 c 2.36798,2.36799 2.36798,6.21359 0,8.58157 -2.36799,2.36798 -6.21358,2.36798 -8.58157,0 l -23.98295,-24.00188 c -6.51669,4.77386 -14.54889,7.57753 -23.24414,7.57753 -21.7665,0 -39.40325,-17.63673 -39.40325,-39.40325 0,-21.7665 17.63675,-39.40325 39.40325,-39.40325 21.76652,0 39.40327,17.63675 39.40327,39.40325 z m -59.10488,1.51552 V 150.561 c 0,2.51954 2.02698,4.54654 4.54652,4.54654 2.51954,0 4.54653,-2.027 4.54653,-4.54654 v -12.12407 c 0,-2.51954 -2.02699,-4.54653 -4.54653,-4.54653 -2.51954,0 -4.54652,2.02699 -4.54652,4.54653 z m 15.15508,-18.18613 v 30.3102 c 0,2.51954 2.02701,4.54654 4.54653,4.54654 2.51955,0 4.54653,-2.027 4.54653,-4.54654 v -30.3102 c 0,-2.51952 -2.02698,-4.54652 -4.54653,-4.54652 -2.51952,0 -4.54653,2.027 -4.54653,4.54652 z m 15.15511,12.12408 V 150.561 c 0,2.51954 2.02699,4.54654 4.54653,4.54654 2.51953,0 4.54653,-2.027 4.54653,-4.54654 v -18.18612 c 0,-2.51952 -2.027,-4.54653 -4.54653,-4.54653 -2.51954,0 -4.54653,2.02701 -4.54653,4.54653 z"
       id="path1-8"
       style="fill:#ffffff;stroke-width:0.189438" /><path
       d="m 667.8125,157.90283 c 16.40234,0 29.6875,-13.28515 29.6875,-29.6875 0,-2.83887 -0.4082,-5.58496 -1.1504,-8.20117 -0.57519,-2.00391 -3.04295,-2.44922 -4.50878,-0.9834 l -14.25,14.25 c -0.55664,0.55664 -1.31738,0.87207 -2.09667,0.87207 h -10.6504 c -1.63281,0 -2.96875,-1.33593 -2.96875,-2.96875 v -10.65039 c 0,-0.7793 0.31543,-1.54004 0.87207,-2.09668 l 14.25,-14.25 c 1.46583,-1.46582 1.00195,-3.93359 -0.9834,-4.508787 -2.6162,-0.742188 -5.3623,-1.150393 -8.20117,-1.150393 -16.40234,0 -29.6875,13.28516 -29.6875,29.6875 0,3.54394 0.63085,6.958 1.76269,10.11231 l -33.69531,33.69531 c -2.35644,2.35644 -3.69238,5.5664 -3.69238,8.90625 0,6.958 5.64062,12.59863 12.59863,12.59863 3.33985,0 6.54981,-1.33594 8.90625,-3.69238 l 33.69531,-33.69531 c 3.1543,1.15038 6.56837,1.76269 10.11231,1.76269 z m -50.46875,16.32812 a 4.453125,4.453125 0 1 1 0,8.90625 4.453125,4.453125 0 1 1 0,-8.90625 z"
       id="path1-84"
       style="fill:#ffffff;stroke-width:0.185546" /><path
       d="M 537,20.544649 C 537,11.450055 544.37863,4.07143 553.47322,4.07143 h 49.41964 5.49107 c 3.03724,0 5.49107,2.4538176 5.49107,5.491073 v 54.91071 c 0,3.037251 -2.45383,5.491072 -5.49107,5.491072 V 80.94643 c 3.03724,0 5.49107,2.453814 5.49107,5.491072 0,3.037244 -2.45383,5.491073 -5.49107,5.491073 h -5.49107 -49.41964 C 544.37863,91.928575 537,84.549949 537,75.455358 Z m 10.98214,54.910709 c 0,3.037244 2.45383,5.491072 5.49108,5.491072 h 43.92856 V 69.964285 h -43.92856 c -3.03725,0 -5.49108,2.453814 -5.49108,5.491073 z m 31.47071,-22.684991 c -0.63491,0.63491 -1.0639,0.720708 -1.26982,0.720708 -0.2059,0 -0.6349,-0.08575 -1.26981,-0.720708 -0.65207,-0.634903 -1.37276,-1.715958 -2.02483,-3.243165 -1.06389,-2.488139 -1.85323,-5.885744 -2.09346,-9.763805 h 10.81054 c -0.25739,3.878061 -1.02958,7.275666 -2.09347,9.763805 -0.65206,1.527207 -1.37277,2.608262 -2.02484,3.243165 z m 7.32714,-1.698796 c 1.25265,-3.140204 2.05915,-7.052597 2.29939,-11.308174 h 5.33664 c -0.80651,4.78752 -3.67216,8.871508 -7.63603,11.308174 z m 0,-28.107428 c 3.98102,2.436667 6.84669,6.520648 7.63603,11.308182 h -5.33664 c -0.24024,-4.238422 -1.04674,-8.150814 -2.29939,-11.308182 z m 13.36733,14.053715 a 21.964286,21.964286 0 1 0 -43.92857,0 21.964286,21.964286 0 1 0 43.92857,0 z m -38.21443,2.745539 h 5.33664 c 0.24023,4.238415 1.04674,8.1508 2.29939,11.308174 -3.98102,-2.436666 -6.84669,-6.520654 -7.63603,-11.308174 z m 5.33664,-5.491072 h -5.33664 c 0.80651,-4.787534 3.67216,-8.871515 7.63603,-11.308182 -1.25265,3.140212 -2.05916,7.052598 -2.29939,11.308182 z m 9.62653,-13.006979 c 0.63491,-0.634901 1.0639,-0.720697 1.26982,-0.720697 0.20592,0 0.6349,0.08575 1.2698,0.720697 0.65208,0.634902 1.37277,1.715959 2.02484,3.24316 1.06389,2.488146 1.85323,5.885744 2.09346,9.763819 h -10.81054 c 0.2574,-3.878075 1.02958,-7.275673 2.09347,-9.763819 0.65208,-1.527201 1.37277,-2.608258 2.02484,-3.24316 z"
       id="path1-87"
       style="fill:#ffffff;fill-opacity:1;stroke-width:0.171596" /><g
       id="g1"
       transform="matrix(1.6,0,0,1.6,248,-3.999999)"><g
         id="g88"
         transform="matrix(1.0053485,0,0,0.97468774,-0.34764913,18.742736)">
	<g
   id="g70">
		<path
   style="fill:#2c3e50"
   d="m 94.766,65.926 c -11.01,0 -19.968,-8.958 -19.968,-19.968 0,-11.01 8.958,-19.968 19.968,-19.968 11.01,0 19.968,8.958 19.968,19.968 0,11.01 -8.957,19.968 -19.968,19.968 z m 0,-34.853 c -8.208,0 -14.886,6.677 -14.886,14.886 0,8.209 6.677,14.886 14.886,14.886 8.209,0 14.886,-6.677 14.886,-14.886 0,-8.209 -6.677,-14.886 -14.886,-14.886 z"
   id="path68" />
	</g>
	<path
   style="fill:#2c3e50"
   d="m 102.178,27.745 c 0,0 -18.665,-7.835 -30.777,-7.987 -5.166,-0.065 -5.91,4.901 -5.91,4.901 0,0 0.324,11.765 0.018,16.156 -0.658,9.44 17.246,21.058 17.246,21.058 0,0 -6.535,-18.698 -2.905,-24.929 4.078,-7.002 22.328,-9.199 22.328,-9.199 z"
   id="path72" />
	<path
   style="fill:#46c8f5"
   d="m 94.867,50.972 c 3.662,0 7.075,-0.591 9.954,-1.607 -1.101,4.532 -5.174,7.901 -10.044,7.901 -4.896,0 -8.988,-3.404 -10.063,-7.972 2.919,1.059 6.405,1.678 10.153,1.678 z"
   id="path74" />
	<path
   style="fill:#2c3e50"
   d="m 68.757,42.68 h -6.532 c -0.55,0 -1,-0.45 -1,-1 V 25.659 c 0,-0.55 0.45,-1 1,-1 h 6.532 c 0.55,0 1,0.45 1,1 V 41.68 c 0,0.55 -0.45,1 -1,1 z"
   id="path76" />
	<g
   id="g80">
		<path
   style="fill:#2c3e50"
   d="m 35.234,65.926 c -11.01,0 -19.968,-8.958 -19.968,-19.968 0,-11.01 8.957,-19.968 19.968,-19.968 11.011,0 19.968,8.958 19.968,19.968 0,11.01 -8.958,19.968 -19.968,19.968 z m 0,-34.853 c -8.208,0 -14.886,6.677 -14.886,14.886 0,8.209 6.677,14.886 14.886,14.886 8.209,0 14.886,-6.677 14.886,-14.886 0,-8.209 -6.678,-14.886 -14.886,-14.886 z"
   id="path78" />
	</g>
	<path
   style="fill:#2c3e50"
   d="m 27.823,27.745 c 0,0 18.665,-7.835 30.777,-7.987 5.166,-0.065 5.91,4.901 5.91,4.901 0,0 -0.324,11.765 -0.018,16.156 0.658,9.44 -17.246,21.058 -17.246,21.058 0,0 6.535,-18.698 2.905,-24.929 -4.078,-7.002 -22.328,-9.199 -22.328,-9.199 z"
   id="path82" />
	<path
   style="fill:#46c8f5"
   d="m 35.134,50.972 c -3.662,0 -7.075,-0.591 -9.954,-1.607 1.101,4.532 5.174,7.901 10.044,7.901 4.896,0 8.988,-3.404 10.063,-7.972 -2.92,1.059 -6.406,1.678 -10.153,1.678 z"
   id="path84" />
	<circle
   style="fill:#46c8f5"
   cx="65.037003"
   cy="29.561001"
   r="2.723"
   id="circle86" />
</g><g
         id="g98"
         transform="matrix(1.0234053,0,0,0.97295194,-1.5218544,11.89531)">
	<path
   style="fill:#2c3e50"
   d="m 37.664,83.084 -2.412,5.002 c -2.662,-1.547 -6.01,-2.627 -8.061,-2.627 -1.656,0 -2.771,0.611 -2.771,1.834 0,4.355 13.316,1.872 13.316,10.977 0,5.039 -4.463,7.701 -10.076,7.701 -4.211,0 -8.53,-1.582 -11.516,-4.031 l 2.482,-4.93 c 2.592,2.268 6.479,3.779 9.106,3.779 2.015,0 3.275,-0.755 3.275,-2.195 0,-4.463 -13.316,-1.799 -13.316,-10.725 0,-4.642 3.994,-7.593 10.041,-7.593 3.633,0.001 7.34,1.116 9.932,2.808 z"
   id="path90" />
	<path
   style="fill:#2c3e50"
   d="m 47.646,85.603 v 5.002 h 12.019 v 5.039 H 47.646 v 5.074 h 13.711 v 5.039 H 41.239 V 80.564 h 19.723 v 5.039 z"
   id="path92" />
	<path
   style="fill:#2c3e50"
   d="m 71.916,85.603 v 5.002 h 12.019 v 5.039 H 71.916 v 5.074 h 13.711 v 5.039 H 65.508 V 80.564 h 19.723 v 5.039 z"
   id="path94" />
	<path
   style="fill:#2c3e50"
   d="m 99.531,95.859 -3.346,3.707 v 6.19 H 89.778 V 80.564 h 6.407 V 91.47 l 9.645,-10.905 h 7.414 l -9.358,10.436 9.971,14.756 h -7.666 z"
   id="path96" />
</g><g
         id="g363"
         transform="matrix(1.048088,0,0,1.0235475,-2.8176725,-56.925797)"><g
           id="g306"
           transform="matrix(0.95221915,0,0,0.95221915,-25.976866,53.455157)"><path
             id="path290"
             d="m 47.728069,19.991372 v 4.441678 h 6.991399 v 2.30807 H 47.728069 V 33.05 H 45.133554 V 17.659727 H 55.46682 l -0.02122,2.330467 h -7.717533 z"
             style="fill:#3b97d3;stroke-width:1.17879" /><path
             id="path292"
             d="M 59.34268,29.576108 57.870372,33.05 H 55.166229 L 61.958413,17.659727 H 64.61894 L 71.34747,33.05 h -2.770155 l -1.473487,-3.473892 z m 3.869965,-9.146226 -2.902179,6.836978 h 5.804358 z"
             style="fill:#3b97d3;stroke-width:1.17879" /><path
             id="path294"
             d="M 73.40092,33.05 V 17.659727 h 2.594516 V 33.05 Z"
             style="fill:#3b97d3;stroke-width:1.17879" /><path
             id="path296"
             d="m 86.992361,28.389067 c -0.220434,0.02122 -0.462085,0.02122 -0.703737,0.02122 H 82.637913 V 33.05 H 80.043398 V 17.659727 h 6.244047 c 3.934799,0 6.199253,1.913175 6.199253,5.255043 0,2.462491 -1.143426,4.198847 -3.187446,4.989815 L 92.750747,33.05 h -2.945795 z m -0.703737,-2.308069 c 2.374081,0 3.736762,-1.011401 3.736762,-3.100216 0,-2.021624 -1.362681,-2.98941 -3.736762,-2.98941 h -3.650711 v 6.089626 z"
             style="fill:#3b97d3;stroke-width:1.17879" /><g
             transform="matrix(1.1787893,0,0,1.1787893,-18.911247,1.1637499)"
             style="fill:#2c3e50"
             id="g304"><path
               id="path298"
               d="m 102.277,14.05 c 3.873,0 6.675,2.71 6.675,6.454 0,3.725 -2.821,6.454 -6.731,6.454 H 96.984 V 14.05 Z m -3.116,10.954 h 3.171 c 2.508,0 4.426,-1.863 4.426,-4.482 0,-2.636 -1.973,-4.518 -4.518,-4.518 h -3.079 z"
               style="fill:#2c3e50" /><path
               id="path300"
               d="m 123.368,20.504 c 0,3.688 -2.986,6.546 -6.841,6.546 -3.854,0 -6.841,-2.858 -6.841,-6.546 0,-3.707 2.987,-6.51 6.841,-6.51 3.855,0 6.841,2.822 6.841,6.51 z m -11.469,0 c 0,2.563 2.121,4.592 4.648,4.592 2.527,0 4.592,-2.028 4.592,-4.592 0,-2.564 -2.065,-4.555 -4.592,-4.555 -2.546,10e-4 -4.648,1.992 -4.648,4.555 z"
               style="fill:#2c3e50" /><path
               id="path302"
               d="m 137.323,26.958 -0.018,-9.644 -4.076,8.298 h -1.42 l -4.075,-8.298 v 9.644 h -2.047 V 14.05 h 2.581 l 4.261,8.574 4.241,-8.574 h 2.563 v 12.908 z"
               style="fill:#2c3e50" /></g></g></g></g></g></svg>
