<?xml version="1.0" encoding="UTF-8" standalone="no"?>
<!-- Generator: Adobe Illustrator 19.1.0, SVG Export Plug-In . SVG Version: 6.00 Build 0)  -->

<svg
   version="1.1"
   id="Layer_1"
   x="0px"
   y="0px"
   viewBox="0 0 690 130"
   xml:space="preserve"
   sodipodi:docname="fairdom-seek-docs-logo.svg"
   inkscape:version="1.3.2 (091e20e, 2023-11-25)"
   width="690"
   height="130"
   inkscape:export-filename="/home/finn/Pictures/fairdom-seek-logo-alt.png"
   inkscape:export-xdpi="147.69"
   inkscape:export-ydpi="147.69"
   xmlns:inkscape="http://www.inkscape.org/namespaces/inkscape"
   xmlns:sodipodi="http://sodipodi.sourceforge.net/DTD/sodipodi-0.dtd"
   xmlns="http://www.w3.org/2000/svg"
   xmlns:svg="http://www.w3.org/2000/svg"
   xmlns:rdf="http://www.w3.org/1999/02/22-rdf-syntax-ns#"
   xmlns:cc="http://creativecommons.org/ns#"
   xmlns:dc="http://purl.org/dc/elements/1.1/"><metadata
   id="metadata105"><rdf:RDF><cc:Work
       rdf:about=""><dc:format>image/svg+xml</dc:format><dc:type
         rdf:resource="http://purl.org/dc/dcmitype/StillImage" /></cc:Work></rdf:RDF></metadata><defs
   id="defs103" /><sodipodi:namedview
   pagecolor="#ffffff"
   bordercolor="#666666"
   borderopacity="1"
   objecttolerance="10"
   gridtolerance="10"
   guidetolerance="10"
   inkscape:pageopacity="0"
   inkscape:pageshadow="2"
   inkscape:window-width="2328"
   inkscape:window-height="1151"
   id="namedview101"
   showgrid="false"
   inkscape:snap-object-midpoints="true"
   inkscape:snap-center="true"
   inkscape:snap-smooth-nodes="true"
   showguides="true"
   inkscape:snap-intersection-paths="true"
   inkscape:object-paths="true"
   inkscape:snap-midpoints="true"
   inkscape:zoom="1.6514684"
   inkscape:cx="415.08515"
   inkscape:cy="94.46139"
   inkscape:window-x="0"
   inkscape:window-y="25"
   inkscape:window-maximized="0"
   inkscape:current-layer="Layer_1"
   inkscape:showpageshadow="2"
   inkscape:pagecheckerboard="0"
   inkscape:deskcolor="#d1d1d1" />
<g
   id="g88"
   transform="matrix(1.0053485,0,0,0.97468774,-0.34764913,18.742736)">
	<g
   id="g70">
		<path
   style="fill:#2c3e50"
   d="m 94.766,65.926 c -11.01,0 -19.968,-8.958 -19.968,-19.968 0,-11.01 8.958,-19.968 19.968,-19.968 11.01,0 19.968,8.958 19.968,19.968 0,11.01 -8.957,19.968 -19.968,19.968 z m 0,-34.853 c -8.208,0 -14.886,6.677 -14.886,14.886 0,8.209 6.677,14.886 14.886,14.886 8.209,0 14.886,-6.677 14.886,-14.886 0,-8.209 -6.677,-14.886 -14.886,-14.886 z"
   id="path68"
   inkscape:connector-curvature="0" />
	</g>
	<path
   style="fill:#2c3e50"
   d="m 102.178,27.745 c 0,0 -18.665,-7.835 -30.777,-7.987 -5.166,-0.065 -5.91,4.901 -5.91,4.901 0,0 0.324,11.765 0.018,16.156 -0.658,9.44 17.246,21.058 17.246,21.058 0,0 -6.535,-18.698 -2.905,-24.929 4.078,-7.002 22.328,-9.199 22.328,-9.199 z"
   id="path72"
   inkscape:connector-curvature="0" />
	<path
   style="fill:#46c8f5"
   d="m 94.867,50.972 c 3.662,0 7.075,-0.591 9.954,-1.607 -1.101,4.532 -5.174,7.901 -10.044,7.901 -4.896,0 -8.988,-3.404 -10.063,-7.972 2.919,1.059 6.405,1.678 10.153,1.678 z"
   id="path74"
   inkscape:connector-curvature="0" />
	<path
   style="fill:#2c3e50"
   d="m 68.757,42.68 h -6.532 c -0.55,0 -1,-0.45 -1,-1 V 25.659 c 0,-0.55 0.45,-1 1,-1 h 6.532 c 0.55,0 1,0.45 1,1 V 41.68 c 0,0.55 -0.45,1 -1,1 z"
   id="path76"
   inkscape:connector-curvature="0" />
	<g
   id="g80">
		<path
   style="fill:#2c3e50"
   d="m 35.234,65.926 c -11.01,0 -19.968,-8.958 -19.968,-19.968 0,-11.01 8.957,-19.968 19.968,-19.968 11.011,0 19.968,8.958 19.968,19.968 0,11.01 -8.958,19.968 -19.968,19.968 z m 0,-34.853 c -8.208,0 -14.886,6.677 -14.886,14.886 0,8.209 6.677,14.886 14.886,14.886 8.209,0 14.886,-6.677 14.886,-14.886 0,-8.209 -6.678,-14.886 -14.886,-14.886 z"
   id="path78"
   inkscape:connector-curvature="0" />
	</g>
	<path
   style="fill:#2c3e50"
   d="m 27.823,27.745 c 0,0 18.665,-7.835 30.777,-7.987 5.166,-0.065 5.91,4.901 5.91,4.901 0,0 -0.324,11.765 -0.018,16.156 0.658,9.44 -17.246,21.058 -17.246,21.058 0,0 6.535,-18.698 2.905,-24.929 -4.078,-7.002 -22.328,-9.199 -22.328,-9.199 z"
   id="path82"
   inkscape:connector-curvature="0" />
	<path
   style="fill:#46c8f5"
   d="m 35.134,50.972 c -3.662,0 -7.075,-0.591 -9.954,-1.607 1.101,4.532 5.174,7.901 10.044,7.901 4.896,0 8.988,-3.404 10.063,-7.972 -2.92,1.059 -6.406,1.678 -10.153,1.678 z"
   id="path84"
   inkscape:connector-curvature="0" />
	<circle
   style="fill:#46c8f5"
   cx="65.037003"
   cy="29.561001"
   r="2.723"
   id="circle86" />
</g>
<g
   id="g98"
   transform="matrix(1.0234053,0,0,0.97295194,-1.5218544,11.89531)">
	<path
   style="fill:#2c3e50"
   d="m 37.664,83.084 -2.412,5.002 c -2.662,-1.547 -6.01,-2.627 -8.061,-2.627 -1.656,0 -2.771,0.611 -2.771,1.834 0,4.355 13.316,1.872 13.316,10.977 0,5.039 -4.463,7.701 -10.076,7.701 -4.211,0 -8.53,-1.582 -11.516,-4.031 l 2.482,-4.93 c 2.592,2.268 6.479,3.779 9.106,3.779 2.015,0 3.275,-0.755 3.275,-2.195 0,-4.463 -13.316,-1.799 -13.316,-10.725 0,-4.642 3.994,-7.593 10.041,-7.593 3.633,0.001 7.34,1.116 9.932,2.808 z"
   id="path90"
   inkscape:connector-curvature="0" />
	<path
   style="fill:#2c3e50"
   d="m 47.646,85.603 v 5.002 h 12.019 v 5.039 H 47.646 v 5.074 h 13.711 v 5.039 H 41.239 V 80.564 h 19.723 v 5.039 z"
   id="path92"
   inkscape:connector-curvature="0" />
	<path
   style="fill:#2c3e50"
   d="m 71.916,85.603 v 5.002 h 12.019 v 5.039 H 71.916 v 5.074 h 13.711 v 5.039 H 65.508 V 80.564 h 19.723 v 5.039 z"
   id="path94"
   inkscape:connector-curvature="0" />
	<path
   style="fill:#2c3e50"
   d="m 99.531,95.859 -3.346,3.707 v 6.19 H 89.778 V 80.564 h 6.407 V 91.47 l 9.645,-10.905 h 7.414 l -9.358,10.436 9.971,14.756 h -7.666 z"
   id="path96"
   inkscape:connector-curvature="0" />
</g>
<g
   id="g363"
   transform="matrix(1.048088,0,0,1.0235475,-2.8176725,-56.925797)"><g
     id="g306"
     transform="matrix(0.95221915,0,0,0.95221915,-25.976866,53.455157)"><path
       id="path290"
       d="m 47.728069,19.991372 v 4.441678 h 6.991399 v 2.30807 H 47.728069 V 33.05 H 45.133554 V 17.659727 H 55.46682 l -0.02122,2.330467 h -7.717533 z"
       style="fill:#3b97d3;stroke-width:1.17879"
       inkscape:connector-curvature="0" /><path
       id="path292"
       d="M 59.34268,29.576108 57.870372,33.05 H 55.166229 L 61.958413,17.659727 H 64.61894 L 71.34747,33.05 h -2.770155 l -1.473487,-3.473892 z m 3.869965,-9.146226 -2.902179,6.836978 h 5.804358 z"
       style="fill:#3b97d3;stroke-width:1.17879"
       inkscape:connector-curvature="0" /><path
       id="path294"
       d="M 73.40092,33.05 V 17.659727 h 2.594516 V 33.05 Z"
       style="fill:#3b97d3;stroke-width:1.17879"
       inkscape:connector-curvature="0" /><path
       id="path296"
       d="m 86.992361,28.389067 c -0.220434,0.02122 -0.462085,0.02122 -0.703737,0.02122 H 82.637913 V 33.05 H 80.043398 V 17.659727 h 6.244047 c 3.934799,0 6.199253,1.913175 6.199253,5.255043 0,2.462491 -1.143426,4.198847 -3.187446,4.989815 L 92.750747,33.05 h -2.945795 z m -0.703737,-2.308069 c 2.374081,0 3.736762,-1.011401 3.736762,-3.100216 0,-2.021624 -1.362681,-2.98941 -3.736762,-2.98941 h -3.650711 v 6.089626 z"
       style="fill:#3b97d3;stroke-width:1.17879"
       inkscape:connector-curvature="0" /><g
       transform="matrix(1.1787893,0,0,1.1787893,-18.911247,1.1637499)"
       style="fill:#2c3e50"
       id="g304"><path
         id="path298"
         d="m 102.277,14.05 c 3.873,0 6.675,2.71 6.675,6.454 0,3.725 -2.821,6.454 -6.731,6.454 H 96.984 V 14.05 Z m -3.116,10.954 h 3.171 c 2.508,0 4.426,-1.863 4.426,-4.482 0,-2.636 -1.973,-4.518 -4.518,-4.518 h -3.079 z"
         style="fill:#2c3e50"
         inkscape:connector-curvature="0" /><path
         id="path300"
         d="m 123.368,20.504 c 0,3.688 -2.986,6.546 -6.841,6.546 -3.854,0 -6.841,-2.858 -6.841,-6.546 0,-3.707 2.987,-6.51 6.841,-6.51 3.855,0 6.841,2.822 6.841,6.51 z m -11.469,0 c 0,2.563 2.121,4.592 4.648,4.592 2.527,0 4.592,-2.028 4.592,-4.592 0,-2.564 -2.065,-4.555 -4.592,-4.555 -2.546,10e-4 -4.648,1.992 -4.648,4.555 z"
         style="fill:#2c3e50"
         inkscape:connector-curvature="0" /><path
         id="path302"
         d="m 137.323,26.958 -0.018,-9.644 -4.076,8.298 h -1.42 l -4.075,-8.298 v 9.644 h -2.047 V 14.05 h 2.581 l 4.261,8.574 4.241,-8.574 h 2.563 v 12.908 z"
         style="fill:#2c3e50"
         inkscape:connector-curvature="0" /></g></g></g><path
   style="font-weight:600;font-size:66.783px;font-family:Montserrat;-inkscape-font-specification:'Montserrat Semi-Bold';text-align:center;letter-spacing:-1.45px;text-anchor:middle;fill:#2c3e50;stroke-width:23.6632;stroke-linejoin:round;paint-order:markers stroke fill"
   d="M 160.71313,84.577049 V 37.828951 h 20.43559 q 7.61326,0 13.3566,2.938452 5.74334,2.938452 8.94892,8.147526 3.20559,5.209074 3.20559,12.288071 0,7.012215 -3.20559,12.288072 -3.20558,5.209074 -8.94892,8.147525 -5.74334,2.938452 -13.3566,2.938452 z m 8.68178,-7.346129 h 11.35311 q 5.20908,0 9.08249,-2.00349 3.87342,-2.00349 5.94369,-5.609772 2.13705,-3.606282 2.13705,-8.414658 0,-4.875159 -2.13705,-8.414657 -2.07027,-3.606282 -5.94369,-5.609772 -3.87341,-2.00349 -9.08249,-2.00349 h -11.35311 z m 60.25751,7.81361 q -5.47621,0 -9.75032,-2.337405 -4.27411,-2.404188 -6.74508,-6.544733 -2.47097,-4.140546 -2.47097,-9.416403 0,-5.34264 2.47097,-9.416403 2.47097,-4.140545 6.74508,-6.47795 4.27411,-2.337405 9.75032,-2.337405 5.54299,0 9.8171,2.337405 4.34089,2.337405 6.74508,6.411167 2.47097,4.073763 2.47097,9.483186 0,5.275857 -2.47097,9.416403 -2.40419,4.140545 -6.74508,6.544733 -4.27411,2.337405 -9.8171,2.337405 z m 0,-7.14578 q 3.07201,0 5.4762,-1.33566 2.40419,-1.33566 3.73985,-3.873414 1.40244,-2.537754 1.40244,-5.943687 0,-3.472716 -1.40244,-5.943687 -1.33566,-2.537754 -3.73985,-3.873414 -2.40419,-1.335659 -5.40942,-1.335659 -3.07202,0 -5.47621,1.335659 -2.3374,1.33566 -3.73984,3.873414 -1.40245,2.470971 -1.40245,5.943687 0,3.405933 1.40245,5.943687 1.40244,2.537754 3.73984,3.873414 2.40419,1.33566 5.40943,1.33566 z m 41.95898,7.14578 q -5.60977,0 -10.01745,-2.337405 -4.34089,-2.404188 -6.81186,-6.544733 -2.47098,-4.140546 -2.47098,-9.416403 0,-5.34264 2.47098,-9.416403 2.47097,-4.140545 6.81186,-6.47795 4.40768,-2.337405 10.01745,-2.337405 5.20907,0 9.14927,2.137056 4.00698,2.070273 6.07725,6.144035 l -6.41116,3.739848 q -1.6028,-2.537754 -3.9402,-3.739848 -2.27062,-1.202093 -4.94194,-1.202093 -3.07202,0 -5.54299,1.335659 -2.47097,1.33566 -3.87342,3.873414 -1.40244,2.470971 -1.40244,5.943687 0,3.472716 1.40244,6.01047 1.40245,2.470971 3.87342,3.806631 2.47097,1.33566 5.54299,1.33566 2.67132,0 4.94194,-1.202094 2.3374,-1.202094 3.9402,-3.739848 l 6.41116,3.739848 q -2.07027,4.006979 -6.07725,6.210818 -3.9402,2.137056 -9.14927,2.137056 z m 36.08201,0 q -4.54125,0 -8.01396,-1.669575 -3.47272,-1.736358 -5.40943,-5.209073 -1.9367,-3.539499 -1.9367,-8.882139 V 48.914929 h 8.34787 v 19.233503 q 0,4.808376 2.13706,7.212564 2.20384,2.337405 6.21082,2.337405 2.93845,0 5.0755,-1.202094 2.20384,-1.202094 3.40594,-3.606282 1.26887,-2.404188 1.26887,-5.943687 V 48.914929 h 8.34788 v 35.66212 h -7.94718 v -9.616751 l 1.40245,2.938452 q -1.80315,3.472715 -5.27586,5.342639 -3.47272,1.803141 -7.61326,1.803141 z m 28.93625,-0.467481 v -35.66212 h 7.94717 v 9.483185 l -1.40244,-2.804885 q 1.80314,-3.472716 5.20907,-5.275857 3.47272,-1.803141 7.8804,-1.803141 5.00872,0 8.68179,2.470971 3.73984,2.470971 4.94194,7.479695 l -3.27237,-1.135311 q 1.73636,-4.006979 5.74334,-6.411167 4.00698,-2.404188 9.28284,-2.404188 4.27411,0 7.54647,1.669575 3.33915,1.669575 5.20908,5.142291 1.86992,3.405932 1.86992,8.815355 V 84.577049 H 387.919 V 65.20998 q 0,-4.741593 -2.07028,-7.078998 -2.07027,-2.337405 -5.94368,-2.337405 -2.73811,0 -4.87516,1.202094 -2.07027,1.202094 -3.27237,3.539499 -1.13531,2.337405 -1.13531,5.943687 v 18.098192 h -8.34787 V 65.20998 q 0,-4.741593 -2.07028,-7.078998 -2.07027,-2.337405 -5.94368,-2.337405 -2.73811,0 -4.87516,1.202094 -2.07028,1.202094 -3.27237,3.539499 -1.13531,2.337405 -1.13531,5.943687 v 18.098192 z m 85.72173,0.467481 q -5.94369,0 -10.41815,-2.337405 -4.40768,-2.404188 -6.87865,-6.544733 -2.40419,-4.140546 -2.40419,-9.416403 0,-5.34264 2.33741,-9.416403 2.40418,-4.140545 6.54473,-6.47795 4.20733,-2.337405 9.54997,-2.337405 5.20907,0 9.28283,2.270622 4.07377,2.270622 6.41117,6.411167 2.33741,4.140546 2.33741,9.750318 0,0.534264 -0.0668,1.202094 0,0.66783 -0.0668,1.268877 h -29.7184 V 63.87432 h 25.31075 l -3.27236,1.736358 q 0.0668,-3.072018 -1.26888,-5.409423 -1.33566,-2.337405 -3.67306,-3.673065 -2.27063,-1.335659 -5.27586,-1.335659 -3.07202,0 -5.40942,1.335659 -2.27063,1.33566 -3.60629,3.739848 -1.26887,2.337405 -1.26887,5.542989 v 1.33566 q 0,3.205584 1.46922,5.676555 1.46923,2.470971 4.14055,3.806631 2.67132,1.33566 6.14403,1.33566 3.00524,0 5.40943,-0.934962 2.40418,-0.934962 4.27411,-2.938452 l 4.47446,5.14229 q -2.40419,2.804886 -6.07725,4.340895 -3.60628,1.469226 -8.28109,1.469226 z m 23.32648,-0.467481 v -35.66212 h 7.94718 v 9.616751 l -1.40244,-2.938451 q 1.86992,-3.405933 5.40942,-5.209074 3.60628,-1.869924 8.28109,-1.869924 4.27411,0 7.61326,1.669575 3.40594,1.669575 5.34264,5.142291 1.93671,3.405932 1.93671,8.815355 v 20.435597 h -8.34788 V 65.20998 q 0,-4.741593 -2.27062,-7.078998 -2.20384,-2.337405 -6.21082,-2.337405 -2.93845,0 -5.20907,1.202094 -2.27062,1.202094 -3.5395,3.606282 -1.20209,2.337405 -1.20209,5.943687 v 18.031409 z m 57.71971,0.467481 q -5.8769,0 -9.08249,-3.005235 -3.20558,-3.072018 -3.20558,-9.015704 V 41.034535 h 8.34787 v 31.788707 q 0,2.537754 1.26888,3.940197 1.33566,1.402443 3.67307,1.402443 2.80488,0 4.67481,-1.469226 l 2.3374,5.943686 q -1.46923,1.202094 -3.60628,1.803141 -2.13706,0.601047 -4.40768,0.601047 z M 485.23261,55.593229 v -6.6783 h 23.77474 v 6.6783 z m 52.28677,28.98382 V 77.364486 L 537.0519,75.828477 V 63.20649 q 0,-3.673065 -2.20384,-5.676555 -2.20384,-2.070272 -6.6783,-2.070272 -3.00523,0 -5.94368,0.934961 -2.87167,0.934962 -4.87516,2.604537 l -3.27237,-6.077252 q 2.87167,-2.203839 6.81187,-3.272367 4.00698,-1.135311 8.28109,-1.135311 7.74683,0 11.95415,3.739848 4.27412,3.673064 4.27412,11.419892 v 20.903078 z m -11.21954,0.467481 q -4.00698,0 -7.01222,-1.33566 -3.00523,-1.402443 -4.67481,-3.806631 -1.60279,-2.47097 -1.60279,-5.542988 0,-3.005235 1.40245,-5.409423 1.46922,-2.404188 4.74159,-3.806631 3.27237,-1.402443 8.68179,-1.402443 h 10.35136 v 5.542989 h -9.75032 q -4.27411,0 -5.74333,1.402443 -1.46923,1.33566 -1.46923,3.33915 0,2.270622 1.80314,3.606282 1.80314,1.335659 5.00873,1.335659 3.07201,0 5.4762,-1.402442 2.47097,-1.402443 3.5395,-4.140546 l 1.40244,5.008725 q -1.20209,3.1388 -4.34089,4.875158 -3.07202,1.736358 -7.81361,1.736358 z m 41.75863,0 q -5.8769,0 -9.08249,-3.005235 -3.20558,-3.072018 -3.20558,-9.015704 V 41.034535 h 8.34787 v 31.788707 q 0,2.537754 1.26888,3.940197 1.33566,1.402443 3.67306,1.402443 2.80489,0 4.67481,-1.469226 l 2.33741,5.943686 q -1.46923,1.202094 -3.60628,1.803141 -2.13706,0.601047 -4.40768,0.601047 z M 549.89349,55.593229 v -6.6783 h 23.77475 v 6.6783 z m 31.60756,28.98382 v -35.66212 h 8.34788 v 35.66212 z m 4.20733,-41.539024 q -2.3374,0 -3.87341,-1.469226 -1.46923,-1.469226 -1.46923,-3.539499 0,-2.137056 1.46923,-3.539499 1.53601,-1.469226 3.87341,-1.469226 2.33741,0 3.80663,1.402443 1.53601,1.33566 1.53601,3.405933 0,2.203839 -1.46922,3.739848 -1.46923,1.469226 -3.87342,1.469226 z m 29.67084,42.006505 q -5.4762,0 -9.75031,-2.337405 -4.27412,-2.404188 -6.74509,-6.544733 -2.47097,-4.140546 -2.47097,-9.416403 0,-5.34264 2.47097,-9.416403 2.47097,-4.140545 6.74509,-6.47795 4.27411,-2.337405 9.75031,-2.337405 5.54299,0 9.8171,2.337405 4.3409,2.337405 6.74509,6.411167 2.47097,4.073763 2.47097,9.483186 0,5.275857 -2.47097,9.416403 -2.40419,4.140545 -6.74509,6.544733 -4.27411,2.337405 -9.8171,2.337405 z m 0,-7.14578 q 3.07202,0 5.47621,-1.33566 2.40419,-1.33566 3.73985,-3.873414 1.40244,-2.537754 1.40244,-5.943687 0,-3.472716 -1.40244,-5.943687 -1.33566,-2.537754 -3.73985,-3.873414 -2.40419,-1.335659 -5.40942,-1.335659 -3.07202,0 -5.47621,1.335659 -2.3374,1.33566 -3.73985,3.873414 -1.40244,2.470971 -1.40244,5.943687 0,3.405933 1.40244,5.943687 1.40245,2.537754 3.73985,3.873414 2.40419,1.33566 5.40942,1.33566 z m 25.59718,6.678299 v -35.66212 h 7.94717 v 9.616751 l -1.40244,-2.938451 q 1.86992,-3.405933 5.40942,-5.209074 3.60628,-1.869924 8.28109,-1.869924 4.27412,0 7.61327,1.669575 3.40593,1.669575 5.34264,5.142291 1.9367,3.405932 1.9367,8.815355 v 20.435597 h -8.34787 V 65.20998 q 0,-4.741593 -2.27062,-7.078998 -2.20384,-2.337405 -6.21082,-2.337405 -2.93845,0 -5.20908,1.202094 -2.27062,1.202094 -3.5395,3.606282 -1.20209,2.337405 -1.20209,5.943687 v 18.031409 z"
   id="text1"
   aria-label="Documentation" /></svg>
